# xmcd CD database file generated by Grip 3.0.3
# 
# Track frame offsets:
#       150
#       40825
#       46648
#       73746
#       96597
#       100657
#       169102
#       173115
#       210804
#       245412
#       248888
# 
# Disc length: 3855 seconds
# 
# Revision: 2
# Processed by: cddbd v1.4PL0 Copyright (c) Steve Scherf et al.
# Submitted via: Grip 3.0.3
# 
DISCID=8a0f0d0b
DTITLE=Albert King and Stevie Ray Vaughan - In Session
DYEAR=1900
DGENRE=Blues
TTITLE0=Call it Stormy Monday
TTITLE1=Old Times
TTITLE2=Pride and Joy
TTITLE3=Ask Me No Question
TTITLE4=Pep Talk
TTITLE5=Blues at Sunrise
TTITLE6=Turn It Over
TTITLE7=Overall Junction
TTITLE8=Match Box Blues
TTITLE9=Who is Stevie
TTITLE10=Don't Lie To Me
EXTD=
EXTT0=
EXTT1=
EXTT2=
EXTT3=
EXTT4=
EXTT5=
EXTT6=
EXTT7=
EXTT8=
EXTT9=
EXTT10=
PLAYORDER=
